<?xml version="1.0" encoding="UTF-8"?>
<svg xmlns="http://www.w3.org/2000/svg" width="1024" height="1024" viewBox="0 0 1024 1024">
  <defs>
    <radialGradient id="bg" cx="50%" cy="42%" r="70%">
      <stop offset="0" stop-color="#fffdf5"/>
      <stop offset="1" stop-color="#fff4d8"/>
    </radialGradient>
    <linearGradient id="gold" x1="0" y1="0" x2="0" y2="1">
      <stop offset="0" stop-color="#ffd83d"/>
      <stop offset="0.48" stop-color="#ffbd00"/>
      <stop offset="1" stop-color="#e99a00"/>
    </linearGradient>
    <linearGradient id="blue" x1="0" y1="0" x2="0" y2="1">
      <stop offset="0" stop-color="#6dc5ff"/>
      <stop offset="1" stop-color="#278fe9"/>
    </linearGradient>
    <linearGradient id="coral" x1="0" y1="0" x2="0" y2="1">
      <stop offset="0" stop-color="#ff8068"/>
      <stop offset="1" stop-color="#f04f3f"/>
    </linearGradient>
    <linearGradient id="mint" x1="0" y1="0" x2="0" y2="1">
      <stop offset="0" stop-color="#8be5c5"/>
      <stop offset="1" stop-color="#3dbb98"/>
    </linearGradient>
    <filter id="shadow" x="-30%" y="-30%" width="160%" height="170%">
      <feDropShadow dx="0" dy="16" stdDeviation="16" flood-color="#8b6300" flood-opacity=".23"/>
    </filter>
    <filter id="smallShadow" x="-40%" y="-40%" width="180%" height="190%">
      <feDropShadow dx="0" dy="8" stdDeviation="8" flood-color="#3f3000" flood-opacity=".25"/>
    </filter>
  </defs>
  <rect width="1024" height="1024" fill="url(#bg)"/>
  <path d="M150 714V407c0-61 23-108 70-148L422 87c52-44 128-44 180 0l202 172c47 40 70 87 70 148v307c0 93-60 148-153 148H303c-93 0-153-55-153-148Z" fill="#fffaf0" stroke="url(#gold)" stroke-width="68" stroke-linejoin="round" filter="url(#shadow)"/>
  <path d="M365 522 486 499l16 275-74-58-62 70Z" fill="url(#coral)" stroke="#dd4939" stroke-width="6" stroke-linejoin="round" filter="url(#smallShadow)"/>
  <path d="M522 500 646 528l11 257-69-67-69 55Z" fill="url(#mint)" stroke="#2da887" stroke-width="6" stroke-linejoin="round" filter="url(#smallShadow)"/>
  <circle cx="512" cy="475" r="167" fill="url(#blue)" stroke="#2187dc" stroke-width="8" filter="url(#smallShadow)"/>
  <circle cx="512" cy="475" r="139" fill="none" stroke="#8ad1ff" stroke-width="10" opacity=".7"/>
  <path d="M512 371c13 0 24 46 35 58 12 12 59 23 59 36s-47 24-59 36c-11 12-22 59-35 59s-24-47-36-59c-11-12-58-23-58-36s47-24 58-36c12-12 23-58 36-58Z" fill="url(#gold)" stroke="#eda800" stroke-width="6" filter="url(#smallShadow)"/>
  <path d="M688 329c8 0 14 29 22 36 7 7 36 14 36 22s-29 14-36 22c-8 7-14 36-22 36s-15-29-22-36c-7-8-36-14-36-22s29-15 36-22c7-7 14-36 22-36Z" fill="#fff0b0"/>
</svg>

